<?xml version="1.0" standalone="no"?>
<!DOCTYPE svg PUBLIC "-//W3C//DTD SVG 20010904//EN"
 "http://www.w3.org/TR/2001/REC-SVG-20010904/DTD/svg10.dtd">
<svg version="1.0" xmlns="http://www.w3.org/2000/svg"
 width="450.000000pt" height="450.000000pt" viewBox="0 0 450.000000 450.000000"
 preserveAspectRatio="xMidYMid meet">
<metadata>
Created by potrace 1.14, written by Peter Selinger 2001-2017
</metadata>
<g transform="translate(0.000000,450.000000) scale(0.100000,-0.100000)"
fill="#000000" stroke="none">
<path d="M1800 3777 c-113 -46 -150 -65 -150 -78 0 -15 9 -17 63 -16 62 2 62
2 80 -34 14 -29 17 -65 17 -205 1 -239 3 -218 -16 -199 -59 59 -208 83 -320
50 -257 -73 -425 -424 -344 -715 38 -133 122 -239 236 -295 52 -27 69 -30 149
-30 118 0 186 29 275 114 13 13 15 7 18 -52 3 -66 3 -67 31 -67 23 0 303 109
317 123 3 2 2 12 -2 21 -4 11 -13 15 -25 11 -64 -21 -103 -10 -121 33 -8 19
-12 233 -13 712 l-1 685 -22 1 c-12 1 -89 -26 -172 -59z m-128 -558 c53 -27
95 -76 119 -138 18 -50 20 -77 20 -335 l0 -281 -33 -28 c-45 -40 -112 -67
-161 -67 -84 0 -187 70 -242 165 -57 96 -80 299 -50 441 28 132 108 235 202
259 54 15 92 10 145 -16z"/>
<path d="M467 3300 c-20 -5 -60 -21 -87 -35 -54 -27 -160 -122 -160 -142 0 -7
-3 -13 -8 -13 -11 0 -50 -91 -68 -161 -9 -35 -17 -107 -19 -159 -5 -217 66
-375 213 -473 127 -86 307 -88 428 -6 91 62 191 217 197 305 3 58 -23 55 -51
-5 -31 -65 -85 -127 -136 -154 -61 -33 -202 -32 -268 2 -57 29 -115 82 -152
138 -38 58 -72 175 -72 248 l1 60 343 0 342 0 0 35 c0 90 -45 195 -112 263
-72 72 -142 101 -258 104 -52 1 -112 -2 -133 -7z m158 -95 c69 -41 102 -94
111 -180 l6 -55 -96 -1 c-53 0 -125 0 -161 0 -36 0 -97 0 -136 0 l-71 1 7 38
c25 135 141 236 258 225 23 -2 60 -15 82 -28z"/>
<path d="M1020 1722 c-80 -27 -111 -45 -173 -102 -117 -107 -170 -238 -170
-420 1 -72 8 -124 25 -185 6 -22 12 -42 13 -45 19 -80 142 -216 231 -257 142
-65 312 -31 429 85 77 75 162 264 134 298 -10 13 -18 5 -50 -52 -20 -37 -53
-83 -72 -103 -110 -114 -287 -119 -396 -12 -148 146 -181 460 -67 630 29 42
94 96 120 99 6 0 30 4 54 8 67 11 126 -16 151 -70 12 -23 21 -54 21 -68 0 -75
46 -118 125 -118 120 0 128 146 13 244 -18 16 -58 40 -88 54 -73 34 -218 41
-300 14z"/>
<path d="M2040 1726 c-163 -47 -274 -158 -336 -335 -92 -266 22 -566 256 -674
55 -25 80 -31 161 -33 247 -9 418 126 496 391 25 88 22 240 -7 325 -53 158
-160 271 -301 318 -66 22 -206 27 -269 8z m185 -79 c146 -75 234 -338 203
-607 -21 -183 -103 -280 -236 -280 -113 0 -199 71 -260 217 -67 158 -75 411
-18 548 20 47 76 105 121 126 48 22 144 20 190 -4z"/>
<path d="M2878 1678 c-130 -53 -146 -62 -138 -78 8 -15 16 -16 44 -10 71 16
99 -4 112 -80 8 -47 7 -626 -1 -670 -9 -50 -43 -81 -99 -87 -37 -5 -46 -9 -46
-24 0 -19 11 -19 247 -17 227 3 248 4 251 21 3 14 -4 17 -35 18 -58 2 -84 12
-107 42 -20 27 -21 41 -22 355 l-2 327 39 37 c57 53 158 101 212 100 75 -2
118 -28 153 -92 17 -32 19 -63 22 -360 2 -309 2 -327 -17 -357 -20 -32 -67
-53 -118 -53 -16 0 -23 -6 -23 -20 0 -19 7 -20 249 -20 138 0 252 4 255 8 10
16 -10 30 -53 36 -52 7 -89 29 -101 59 -4 12 -9 164 -9 338 -2 356 -9 323 83
392 50 38 127 67 178 67 49 0 106 -30 129 -67 30 -49 33 -79 33 -414 0 -233
-3 -303 -13 -323 -17 -31 -67 -56 -114 -56 -30 0 -35 -3 -34 -20 1 -19 8 -20
249 -20 241 0 248 1 248 20 0 14 -7 20 -22 21 -71 2 -112 30 -124 83 -4 17 -8
177 -9 356 -2 305 -4 328 -24 380 -23 61 -72 119 -123 147 -24 13 -56 18 -118
18 -112 0 -172 -28 -273 -130 l-73 -73 -17 47 c-18 52 -70 111 -119 137 -21
12 -60 19 -108 20 -105 4 -175 -29 -280 -131 l-77 -76 0 103 1 103 -30 2 c-17
1 -90 -23 -176 -59z"/>
<path d="M263 910 c-53 -22 -78 -111 -48 -170 55 -107 225 -61 225 60 0 89
-91 145 -177 110z"/>
</g>
</svg>
