<svg width="39" height="69" viewBox="0 0 39 69" fill="none" xmlns="http://www.w3.org/2000/svg">
<path id="Vector" d="M38.7559 34.0332C38.7559 35.1074 38.3164 36.084 37.5351 36.9141L7.35937 66.8945C6.62697 67.6758 5.60157 68.0664 4.47847 68.0664C2.18357 68.0664 0.474567 66.3574 0.474567 64.0625C0.474567 62.9394 0.914069 61.9629 1.64647 61.1816L28.8926 34.0332L1.64647 6.8848C0.914069 6.1035 0.474567 5.0781 0.474567 4.0039C0.474567 1.709 2.18357 0 4.47847 0C5.60157 0 6.62697 0.390606 7.35937 1.17191L37.5351 31.1523C38.3164 31.9824 38.7559 32.959 38.7559 34.0332Z" fill="black"/>
</svg>
