<svg width="24" height="24" viewBox="0 0 24 24" fill="none" xmlns="http://www.w3.org/2000/svg">
<path d="M24 17.7118V2.32939C24 0.945668 23.0779 0.00012207 21.6637 0.00012207H6.27859C4.96447 0.00012207 3.98848 0.991792 3.98848 2.18333C3.98848 3.36718 5.00289 4.29735 6.25553 4.29735H11.9501L17.0144 4.10517L14.3247 6.49595L0.745439 20.1026C0.276657 20.5869 0 21.1557 0 21.7477C0 22.9085 1.07589 24.0001 2.25168 24.0001C2.8511 24.0001 3.41211 23.7388 3.89627 23.2543L17.4986 9.67083L19.904 6.97256L19.6964 11.8771V17.7349C19.6964 18.9957 20.6187 20.0103 21.8098 20.0103C23.0086 20.0103 24 18.9957 24 17.7118Z" fill="#141418"/>
</svg>
