<svg width="86" height="67" viewBox="0 0 86 67" fill="none" xmlns="http://www.w3.org/2000/svg">
<path id="Vector" d="M12.4512 66.6992H74.2188C81.1524 66.6992 85.3028 62.6465 85.3028 54.4434V12.2559C85.3028 4.0527 81.1035 0 72.8516 0H11.084C4.10158 0 0 4.0527 0 12.2559V54.4434C0 62.6465 4.15038 66.6992 12.4512 66.6992ZM12.1582 60.0586C8.64258 60.0586 6.68948 58.1543 6.68948 54.4434V12.207C6.68948 8.5449 8.64258 6.6406 12.1582 6.6406H73.0957C76.6114 6.6406 78.6133 8.5449 78.6133 12.2559V54.4922C78.6133 58.1543 76.6114 60.0586 73.0957 60.0586H12.1582ZM42.6758 43.9453C45.5078 43.9453 48.1934 42.8223 50.9766 40.0391L81.836 9.668L77.2949 5.127L47.2656 34.8633C45.6055 36.5235 44.1895 37.2559 42.6758 37.2559C41.1133 37.2559 39.6973 36.4746 38.0371 34.8633L7.81248 4.9317L3.32028 9.4727L34.3262 40.0391C37.1094 42.8223 39.7949 43.9453 42.6758 43.9453ZM3.85738 56.8359L8.39848 61.377L32.6172 37.207L28.0762 32.7149L3.85738 56.8359ZM76.9532 61.377L81.4453 56.8848L57.2266 32.7149L52.7344 37.207L76.9532 61.377Z" fill="black"/>
</svg>
