<svg width="77" height="77" viewBox="0 0 77 77" fill="none" xmlns="http://www.w3.org/2000/svg">
<path id="Vector" d="M56.8457 76.2222C63.877 76.2222 68.2227 74.3668 72.1289 69.9234C72.4707 69.5328 72.7637 69.1422 73.1055 68.8004C75.4004 66.1636 76.4746 63.6246 76.4746 61.1832C76.4746 58.2535 74.7657 55.5191 71.0547 52.98L59.8731 45.1675C56.2598 42.6773 52.0606 42.482 48.8867 45.607L45.8594 48.6343C44.9805 49.5132 44.2969 49.5132 43.5645 49.0249C41.3672 47.6089 37.2657 43.898 34.6778 41.3101C32.0899 38.7222 28.916 35.2066 27.4512 32.9605C26.9629 32.1792 26.9629 31.5445 27.8418 30.6656L30.918 27.5894C34.043 24.4644 33.8477 20.2164 31.3086 16.6031L23.5449 5.47033C20.9571 1.75933 18.2227 0.0503242 15.293 0.00152422C12.9004 -0.0472758 10.3614 1.07573 7.72457 3.37073C7.33397 3.71253 6.99217 4.05423 6.60157 4.39603C2.15817 8.25353 0.302734 12.648 0.302734 19.6304C0.302734 30.6656 6.94337 44.2886 19.5899 56.9351C32.1875 69.5328 45.8106 76.2222 56.8457 76.2222ZM56.8946 69.5816C47.1289 69.7769 34.4336 62.2085 24.6192 52.3941C14.7071 42.5796 6.69917 29.3472 6.94337 19.5816C7.04097 15.4312 8.50587 11.9156 11.4356 9.42533C11.7285 9.18123 11.9727 8.98593 12.2657 8.74173C13.2422 7.96053 14.3653 7.47223 15.3418 7.47223C16.416 7.47223 17.3926 7.86282 18.0762 8.93712L25.4981 20.1187C26.2305 21.1929 26.2305 22.316 25.2539 23.2437L21.7383 26.7593C18.9063 29.6402 19.1504 33.0582 21.2989 35.7925C23.6914 38.9175 27.5977 43.2632 30.2344 45.8023C32.8223 48.3902 37.6075 52.7847 40.7325 55.2261C43.4668 57.3257 46.8848 57.6187 49.7168 54.7378L53.2325 51.2222C54.209 50.2945 55.3321 50.2945 56.4063 51.0269L67.5391 58.4488C68.6621 59.1324 69.0039 60.0601 69.0039 61.1343C69.0039 62.1597 68.5645 63.2828 67.7344 64.2593C67.5391 64.5523 67.3438 64.7965 67.0996 65.0406C64.6094 68.0191 61.0449 69.484 56.8946 69.5816Z" fill="black"/>
</svg>
