<svg width="24" height="24" viewBox="0 0 24 24" fill="none" xmlns="http://www.w3.org/2000/svg">
<path d="M24 17.7116V2.32927C24 0.945546 23.0779 0 21.6637 0H6.27859C4.96447 0 3.98848 0.99167 3.98848 2.18321C3.98848 3.36706 5.00289 4.29723 6.25553 4.29723H11.9501L17.0144 4.10505L14.3247 6.49583L0.745439 20.1025C0.276657 20.5868 0 21.1556 0 21.7475C0 22.9083 1.07589 24 2.25168 24C2.8511 24 3.41211 23.7387 3.89627 23.2542L17.4986 9.67071L19.904 6.97244L19.6964 11.877V17.7348C19.6964 18.9955 20.6187 20.0102 21.8098 20.0102C23.0086 20.0102 24 18.9955 24 17.7116Z" fill="#1E1EDC"/>
</svg>
