<svg width="72" height="148" viewBox="0 0 72 148" fill="none" xmlns="http://www.w3.org/2000/svg">
<g clip-path="url(#clip0_696_5087)">
<path d="M2.84871 102.286C1.65914 102.475 0.657401 103.294 0.313053 104.46C-0.0625988 105.626 0.250447 106.886 1.12697 107.705L16.2783 122.574L12.7096 143.554C12.5218 144.751 12.9913 145.948 13.9618 146.672C14.9322 147.397 16.2157 147.492 17.28 146.924L36.0313 137.001L54.7826 146.924C55.2522 147.177 55.7531 147.303 56.2539 147.303C56.9113 147.303 57.5687 147.082 58.1009 146.704C59.0713 145.979 59.5722 144.782 59.3531 143.585L55.7844 122.605L70.9357 107.736C71.7809 106.886 72.0939 105.626 71.7496 104.492C71.3739 103.357 70.4035 102.507 69.2139 102.318L48.2087 99.2307L40.9148 84.3619H43.92C48.2713 84.3619 51.8087 80.8022 51.8087 76.4234V75.2263C51.8087 71.8241 49.68 68.9575 46.7061 67.8234L64.08 57.5538C65.0504 56.9868 65.6452 55.9472 65.6452 54.8131V3.30766C65.6452 1.54356 64.2365 0.125977 62.4835 0.125977H9.57914C7.8261 0.125977 6.4174 1.54356 6.4174 3.30766V54.8131C6.4174 55.9472 7.01218 56.9868 7.95131 57.5538L25.2 67.8864C22.2887 69.052 20.2226 71.9186 20.2226 75.2578V76.4549C20.2226 80.8337 23.76 84.3934 28.1113 84.3934H31.1165L23.7913 99.2307L2.84871 102.286ZM35.8435 66.8468L27.9235 62.1216V6.48935H44.0765V61.9641L35.8435 66.8468ZM59.3217 52.986L50.4 58.2468V6.48935H59.3217V52.986ZM12.6783 6.48935H21.6V58.3099L12.6783 52.986V6.48935ZM26.5148 76.4234V75.2263C26.5148 74.3758 27.2348 73.6512 28.08 73.6512H35.2174C35.4052 73.6827 35.5931 73.7142 35.7809 73.7142C35.9687 73.7142 36.1565 73.6827 36.3757 73.6512H43.8574C44.7026 73.6512 45.4226 74.3758 45.4226 75.2263V76.4234C45.4226 77.274 44.7026 77.9985 43.8574 77.9985H28.08C27.2348 77.9985 26.5148 77.274 26.5148 76.4234ZM28.7374 103.546L36 88.7091L43.2626 103.546C43.7322 104.492 44.6087 105.122 45.6417 105.279L61.8887 107.673L50.1183 119.203C49.367 119.927 49.0226 120.998 49.2104 122.007L51.9965 138.293L37.44 130.607C36.9704 130.355 36.4696 130.229 35.9687 130.229C35.4678 130.229 34.967 130.355 34.4974 130.607L20.0035 138.293L22.7896 122.007C22.9774 120.967 22.6331 119.927 21.8817 119.203L10.1113 107.673L26.3583 105.279C27.3913 105.122 28.2678 104.492 28.7374 103.546Z" fill="#1E1EDC"/>
<path d="M30.3472 111.191V122.828H27.887V113.526H27.8188L25.154 115.197V113.015L28.0347 111.191H30.3472ZM40.3969 116.589L38.181 116.725C38.1431 116.536 38.0617 116.366 37.9367 116.214C37.8117 116.059 37.6469 115.936 37.4424 115.845C37.2416 115.75 37.0011 115.703 36.7208 115.703C36.3458 115.703 36.0295 115.782 35.7719 115.941C35.5143 116.097 35.3855 116.305 35.3855 116.566C35.3855 116.775 35.4689 116.951 35.6355 117.095C35.8022 117.239 36.0882 117.354 36.4935 117.441L38.073 117.759C38.9215 117.934 39.5541 118.214 39.9708 118.6C40.3874 118.987 40.5958 119.494 40.5958 120.123C40.5958 120.695 40.4272 121.197 40.0901 121.629C39.7568 122.061 39.2984 122.398 38.7151 122.64C38.1355 122.879 37.467 122.998 36.7094 122.998C35.5541 122.998 34.6337 122.758 33.948 122.277C33.2662 121.792 32.8666 121.133 32.7492 120.299L35.1299 120.174C35.2018 120.527 35.3761 120.795 35.6526 120.981C35.9291 121.163 36.2833 121.254 36.7151 121.254C37.1393 121.254 37.4802 121.172 37.7378 121.009C37.9992 120.843 38.1318 120.629 38.1355 120.367C38.1318 120.148 38.039 119.968 37.8571 119.828C37.6753 119.684 37.395 119.574 37.0162 119.498L35.5049 119.197C34.6526 119.027 34.0181 118.731 33.6015 118.311C33.1886 117.89 32.9821 117.354 32.9821 116.703C32.9821 116.142 33.1337 115.659 33.4367 115.254C33.7435 114.848 34.1734 114.536 34.7265 114.316C35.2833 114.097 35.9348 113.987 36.681 113.987C37.7833 113.987 38.6507 114.22 39.2833 114.686C39.9196 115.152 40.2909 115.786 40.3969 116.589ZM46.762 114.1V115.919H41.5063V114.1H46.762ZM42.6995 112.009H45.1199V120.146C45.1199 120.369 45.154 120.544 45.2222 120.669C45.2904 120.79 45.3851 120.875 45.5063 120.924C45.6313 120.973 45.7752 120.998 45.9381 120.998C46.0517 120.998 46.1654 120.989 46.279 120.97C46.3927 120.947 46.4798 120.93 46.5404 120.919L46.9211 122.72C46.7998 122.758 46.6294 122.801 46.4097 122.85C46.19 122.903 45.923 122.936 45.6086 122.947C45.0252 122.97 44.5139 122.892 44.0745 122.714C43.6389 122.536 43.2998 122.259 43.0574 121.884C42.815 121.509 42.6957 121.036 42.6995 120.464V112.009Z" fill="#1E1EDC"/>
</g>
<defs>
<clipPath id="clip0_696_5087">
<rect width="72" height="147.429" fill="white"/>
</clipPath>
</defs>
</svg>
