<svg width="72" height="148" viewBox="0 0 72 148" fill="none" xmlns="http://www.w3.org/2000/svg">
<g clip-path="url(#clip0_696_5105)">
<path d="M2.84822 102.286C1.65865 102.475 0.656913 103.294 0.312565 104.46C-0.0630871 105.626 0.249958 106.886 1.12648 107.705L16.2778 122.574L12.7091 143.554C12.5213 144.751 12.9908 145.948 13.9613 146.672C14.9317 147.397 16.2152 147.492 17.2795 146.924L36.0308 137.001L54.7821 146.924C55.2517 147.177 55.7526 147.303 56.2534 147.303C56.9108 147.303 57.5682 147.082 58.1004 146.704C59.0708 145.979 59.5717 144.782 59.3526 143.585L55.7839 122.605L70.9352 107.736C71.7804 106.886 72.0934 105.626 71.7491 104.492C71.3734 103.357 70.403 102.507 69.2134 102.318L48.2082 99.2307L40.9143 84.3619H43.9195C48.2708 84.3619 51.8082 80.8022 51.8082 76.4234V75.2263C51.8082 71.8241 49.6795 68.9575 46.7056 67.8234L64.0795 57.5538C65.05 56.9868 65.6447 55.9472 65.6447 54.8131V3.30766C65.6447 1.54356 64.236 0.125977 62.483 0.125977H9.57865C7.82561 0.125977 6.41691 1.54356 6.41691 3.30766V54.8131C6.41691 55.9472 7.01169 56.9868 7.95082 57.5538L25.1995 67.8864C22.2882 69.052 20.2221 71.9186 20.2221 75.2578V76.4549C20.2221 80.8337 23.7595 84.3934 28.1108 84.3934H31.116L23.7908 99.2307L2.84822 102.286ZM35.843 66.8468L27.923 62.1216V6.48935H44.076V61.9641L35.843 66.8468ZM59.3213 52.986L50.3995 58.2468V6.48935H59.3213V52.986ZM12.6778 6.48935H21.5995V58.3099L12.6778 52.986V6.48935ZM26.5143 76.4234V75.2263C26.5143 74.3758 27.2343 73.6512 28.0795 73.6512H35.2169C35.4047 73.6827 35.5926 73.7142 35.7804 73.7142C35.9682 73.7142 36.156 73.6827 36.3752 73.6512H43.8569C44.7021 73.6512 45.4221 74.3758 45.4221 75.2263V76.4234C45.4221 77.274 44.7021 77.9985 43.8569 77.9985H28.0795C27.2343 77.9985 26.5143 77.274 26.5143 76.4234ZM28.7369 103.546L35.9995 88.7091L43.2621 103.546C43.7317 104.492 44.6082 105.122 45.6413 105.279L61.8882 107.673L50.1178 119.203C49.3665 119.927 49.0221 120.998 49.21 122.007L51.996 138.293L37.4395 130.607C36.97 130.355 36.4691 130.229 35.9682 130.229C35.4673 130.229 34.9665 130.355 34.4969 130.607L20.003 138.293L22.7891 122.007C22.9769 120.967 22.6326 119.927 21.8813 119.203L10.1108 107.673L26.3578 105.279C27.3908 105.122 28.2673 104.492 28.7369 103.546Z" fill="#1E1EDC"/>
<path d="M27.6718 122.987C26.8233 122.987 26.0676 122.841 25.4047 122.549C24.7456 122.254 24.2248 121.848 23.8422 121.333C23.4634 120.814 23.2684 120.216 23.257 119.538H25.7343C25.7494 119.822 25.8422 120.072 26.0127 120.288C26.1869 120.5 26.418 120.665 26.7059 120.782C26.9937 120.9 27.3176 120.958 27.6775 120.958C28.0525 120.958 28.3839 120.892 28.6718 120.759C28.9596 120.627 29.185 120.443 29.3479 120.208C29.5108 119.973 29.5922 119.703 29.5922 119.396C29.5922 119.085 29.5051 118.811 29.3309 118.572C29.1604 118.33 28.9142 118.14 28.5922 118.004C28.274 117.867 27.8953 117.799 27.4559 117.799H26.3706V115.992H27.4559C27.8271 115.992 28.1547 115.928 28.4388 115.799C28.7267 115.67 28.9502 115.492 29.1093 115.265C29.2684 115.034 29.3479 114.765 29.3479 114.458C29.3479 114.167 29.2778 113.911 29.1377 113.691C29.0013 113.468 28.8081 113.294 28.5581 113.169C28.3119 113.044 28.024 112.981 27.6945 112.981C27.3612 112.981 27.0562 113.042 26.7797 113.163C26.5032 113.28 26.2816 113.449 26.115 113.669C25.9483 113.888 25.8593 114.146 25.8479 114.441H23.49C23.5013 113.771 23.6926 113.18 24.0638 112.669C24.435 112.157 24.935 111.758 25.5638 111.47C26.1964 111.178 26.9104 111.032 27.7059 111.032C28.5089 111.032 29.2115 111.178 29.8138 111.47C30.4161 111.761 30.8839 112.155 31.2172 112.651C31.5543 113.144 31.721 113.697 31.7172 114.311C31.721 114.962 31.5184 115.506 31.1093 115.941C30.704 116.377 30.1756 116.653 29.524 116.771V116.862C30.3801 116.972 31.0316 117.269 31.4786 117.754C31.9293 118.235 32.1528 118.837 32.149 119.561C32.1528 120.223 31.9615 120.812 31.5752 121.328C31.1926 121.843 30.6642 122.248 29.99 122.544C29.3157 122.839 28.543 122.987 27.6718 122.987ZM33.9402 122.828V114.1H36.2868V115.623H36.3777C36.5368 115.081 36.8039 114.672 37.1789 114.396C37.5539 114.116 37.9857 113.975 38.4743 113.975C38.5955 113.975 38.7262 113.983 38.8664 113.998C39.0065 114.013 39.1296 114.034 39.2357 114.061V116.208C39.1221 116.174 38.9649 116.144 38.7641 116.117C38.5633 116.091 38.3796 116.078 38.213 116.078C37.8569 116.078 37.5387 116.155 37.2584 116.311C36.9819 116.462 36.7622 116.674 36.5993 116.947C36.4402 117.22 36.3607 117.534 36.3607 117.89V122.828H33.9402ZM43.2968 122.97C42.6339 122.97 42.0335 122.799 41.4956 122.458C40.9615 122.114 40.5373 121.608 40.2229 120.941C39.9123 120.271 39.757 119.449 39.757 118.475C39.757 117.475 39.918 116.644 40.24 115.981C40.5619 115.314 40.99 114.816 41.524 114.487C42.0619 114.153 42.6509 113.987 43.2911 113.987C43.7797 113.987 44.1869 114.07 44.5127 114.237C44.8422 114.4 45.1074 114.604 45.3081 114.85C45.5127 115.093 45.668 115.331 45.774 115.566H45.8479V111.191H48.2627V122.828H45.8763V121.43H45.774C45.6604 121.672 45.4994 121.913 45.2911 122.152C45.0865 122.386 44.8195 122.581 44.49 122.737C44.1642 122.892 43.7665 122.97 43.2968 122.97ZM44.0638 121.044C44.454 121.044 44.7835 120.937 45.0525 120.725C45.3252 120.509 45.5335 120.208 45.6775 119.822C45.8252 119.436 45.899 118.983 45.899 118.464C45.899 117.945 45.8271 117.494 45.6831 117.112C45.5392 116.729 45.3309 116.434 45.0581 116.225C44.7854 116.017 44.454 115.913 44.0638 115.913C43.6661 115.913 43.3309 116.021 43.0581 116.237C42.7854 116.453 42.579 116.752 42.4388 117.134C42.2987 117.517 42.2286 117.96 42.2286 118.464C42.2286 118.972 42.2987 119.42 42.4388 119.811C42.5828 120.197 42.7892 120.5 43.0581 120.72C43.3309 120.936 43.6661 121.044 44.0638 121.044Z" fill="#1E1EDC"/>
</g>
<defs>
<clipPath id="clip0_696_5105">
<rect width="72" height="147.429" fill="white"/>
</clipPath>
</defs>
</svg>
