<svg width="12" height="8" viewBox="0 0 12 8" fill="none" xmlns="http://www.w3.org/2000/svg">
<g clip-path="url(#clip0_686_253)">
<path d="M6.00345 7.67875C6.17616 7.67875 6.34887 7.60963 6.46631 7.47841L11.8135 1.99999C11.9309 1.88255 12 1.73056 12 1.55785C12 1.19861 11.7305 0.922272 11.3713 0.922272C11.1986 0.922272 11.0397 0.991357 10.9223 1.1019L5.63039 6.51121H6.3696L1.07772 1.1019C0.967186 0.991357 0.808291 0.922272 0.62867 0.922272C0.26943 0.922272 0 1.19861 0 1.55785C0 1.73056 0.0690845 1.88255 0.186528 2.0069L5.53368 7.47841C5.66493 7.60963 5.82383 7.67875 6.00345 7.67875Z" fill="#2D2D30"/>
</g>
<defs>
<clipPath id="clip0_686_253">
<rect width="12" height="7.35752" fill="white" transform="translate(0 0.321228)"/>
</clipPath>
</defs>
</svg>
