<svg width="24" height="24" viewBox="0 0 24 24" fill="none" xmlns="http://www.w3.org/2000/svg">
<g clip-path="url(#clip0_755_8933)">
<path fill-rule="evenodd" clip-rule="evenodd" d="M6.86425 7.52982C7.26201 8.00713 7.19752 8.71652 6.72021 9.11428L3.25731 12L6.72021 14.8858C7.19752 15.2835 7.26201 15.9929 6.86425 16.4702C6.46649 16.9475 5.7571 17.012 5.27979 16.6143L0.779793 12.8643C0.523301 12.6505 0.375 12.3339 0.375 12C0.375 11.6662 0.523301 11.3495 0.779793 11.1358L5.27979 7.38578C5.7571 6.98802 6.46649 7.05251 6.86425 7.52982Z" fill="#1E1EDC"/>
<path fill-rule="evenodd" clip-rule="evenodd" d="M17.1358 7.52982C17.5335 7.05251 18.2429 6.98802 18.7202 7.38578L23.2202 11.1358C23.4767 11.3495 23.625 11.6662 23.625 12C23.625 12.3339 23.4767 12.6505 23.2202 12.8643L18.7202 16.6143C18.2429 17.012 17.5335 16.9475 17.1358 16.4702C16.738 15.9929 16.8025 15.2835 17.2798 14.8858L20.7427 12L17.2798 9.11428C16.8025 8.71652 16.738 8.00713 17.1358 7.52982Z" fill="#1E1EDC"/>
<path fill-rule="evenodd" clip-rule="evenodd" d="M15.3843 2.69279C15.9682 2.90513 16.2694 3.55061 16.0571 4.13452L10.0571 20.6345C9.84475 21.2184 9.19927 21.5197 8.61536 21.3073C8.03144 21.095 7.73022 20.4495 7.94255 19.8656L13.9426 3.3656C14.1549 2.78169 14.8004 2.48046 15.3843 2.69279Z" fill="#1E1EDC"/>
</g>
<defs>
<clipPath id="clip0_755_8933">
<rect width="24" height="24" fill="white"/>
</clipPath>
</defs>
</svg>
