<svg width="480" height="652" viewBox="0 0 480 652" fill="none" xmlns="http://www.w3.org/2000/svg">
<g clip-path="url(#clip0_703_7936)">
<circle cx="8" cy="8" r="8" transform="matrix(-0.965926 0.258819 0.258819 0.965926 45.9834 -12.7117)" fill="#2D2D30"/>
<circle cx="8" cy="8" r="8" transform="matrix(-0.965926 0.258819 0.258819 0.965926 15.0732 -4.42944)" fill="#2D2D30"/>
<circle cx="8" cy="8" r="8" transform="matrix(-0.965926 0.258819 0.258819 0.965926 177.904 -14.9309)" fill="#2D2D30"/>
<circle cx="8" cy="8" r="8" transform="matrix(-0.965926 0.258819 0.258819 0.965926 146.994 -6.64868)" fill="#2D2D30"/>
<circle cx="8" cy="8" r="8" transform="matrix(-0.965926 0.258819 0.258819 0.965926 116.085 1.63354)" fill="#2D2D30"/>
<circle cx="8" cy="8" r="8" transform="matrix(-0.965926 0.258819 0.258819 0.965926 85.1748 9.91577)" fill="#2D2D30"/>
<circle cx="8" cy="8" r="8" transform="matrix(-0.965926 0.258819 0.258819 0.965926 54.2656 18.198)" fill="#2D2D30"/>
<circle cx="8" cy="8" r="8" transform="matrix(-0.965926 0.258819 0.258819 0.965926 23.3555 26.4802)" fill="#2D2D30"/>
<circle cx="8" cy="8" r="8" transform="matrix(-0.965926 0.258819 0.258819 0.965926 309.824 -17.1501)" fill="#2D2D30"/>
<circle cx="8" cy="8" r="8" transform="matrix(-0.965926 0.258819 0.258819 0.965926 278.915 -8.86792)" fill="#2D2D30"/>
<circle cx="8" cy="8" r="8" transform="matrix(-0.965926 0.258819 0.258819 0.965926 248.005 -0.585693)" fill="#2D2D30"/>
<circle cx="8" cy="8" r="8" transform="matrix(-0.965926 0.258819 0.258819 0.965926 217.096 7.69653)" fill="#2D2D30"/>
<circle cx="8" cy="8" r="8" transform="matrix(-0.965926 0.258819 0.258819 0.965926 186.187 15.9788)" fill="#2D2D30"/>
<circle cx="8" cy="8" r="8" transform="matrix(-0.965926 0.258819 0.258819 0.965926 155.276 24.261)" fill="#2D2D30"/>
<circle cx="8" cy="8" r="8" transform="matrix(-0.965926 0.258819 0.258819 0.965926 124.367 32.5432)" fill="#2D2D30"/>
<circle cx="8" cy="8" r="8" transform="matrix(-0.965926 0.258819 0.258819 0.965926 93.457 40.8254)" fill="#2D2D30"/>
<circle cx="8" cy="8" r="8" transform="matrix(-0.965926 0.258819 0.258819 0.965926 62.5479 49.1077)" fill="#2D2D30"/>
<circle cx="8" cy="8" r="8" transform="matrix(-0.965926 0.258819 0.258819 0.965926 441.745 -19.3691)" fill="#2D2D30"/>
<circle cx="8" cy="8" r="8" transform="matrix(-0.965926 0.258819 0.258819 0.965926 410.836 -11.0872)" fill="#2D2D30"/>
<circle cx="8" cy="8" r="8" transform="matrix(-0.965926 0.258819 0.258819 0.965926 379.926 -2.80493)" fill="#2D2D30"/>
<circle cx="8" cy="8" r="8" transform="matrix(-0.965926 0.258819 0.258819 0.965926 349.017 5.47729)" fill="#2D2D30"/>
<circle cx="8" cy="8" r="8" transform="matrix(-0.965926 0.258819 0.258819 0.965926 318.106 13.7595)" fill="#2D2D30"/>
<circle cx="8" cy="8" r="8" transform="matrix(-0.965926 0.258819 0.258819 0.965926 287.197 22.0417)" fill="#2D2D30"/>
<circle cx="8" cy="8" r="8" transform="matrix(-0.965926 0.258819 0.258819 0.965926 256.287 30.324)" fill="#2D2D30"/>
<circle cx="8" cy="8" r="8" transform="matrix(-0.965926 0.258819 0.258819 0.965926 225.378 38.6062)" fill="#2D2D30"/>
<circle cx="8" cy="8" r="8" transform="matrix(-0.965926 0.258819 0.258819 0.965926 194.469 46.8884)" fill="#2D2D30"/>
<circle cx="8" cy="8" r="8" transform="matrix(-0.965926 0.258819 0.258819 0.965926 163.559 55.1707)" fill="#2D2D30"/>
<circle cx="8" cy="8" r="8" transform="matrix(-0.965926 0.258819 0.258819 0.965926 132.649 63.4529)" fill="#2D2D30"/>
<circle cx="8" cy="8" r="8" transform="matrix(-0.965926 0.258819 0.258819 0.965926 101.739 71.7351)" fill="#2D2D30"/>
<circle cx="8" cy="8" r="8" transform="matrix(-0.965926 0.258819 0.258819 0.965926 70.8301 80.0173)" fill="#2D2D30"/>
<circle cx="8" cy="8" r="8" transform="matrix(-0.965926 0.258819 0.258819 0.965926 480.938 3.2583)" fill="#2D2D30"/>
<circle cx="8" cy="8" r="8" transform="matrix(-0.965926 0.258819 0.258819 0.965926 450.027 11.5405)" fill="#2D2D30"/>
<circle cx="8" cy="8" r="8" transform="matrix(-0.965926 0.258819 0.258819 0.965926 419.118 19.8225)" fill="#2D2D30"/>
<circle cx="8" cy="8" r="8" transform="matrix(-0.965926 0.258819 0.258819 0.965926 388.208 28.1047)" fill="#2D2D30"/>
<circle cx="8" cy="8" r="8" transform="matrix(-0.965926 0.258819 0.258819 0.965926 357.299 36.387)" fill="#2D2D30"/>
<circle cx="8" cy="8" r="8" transform="matrix(-0.965926 0.258819 0.258819 0.965926 326.389 44.6692)" fill="#2D2D30"/>
<circle cx="8" cy="8" r="8" transform="matrix(-0.965926 0.258819 0.258819 0.965926 295.479 52.9514)" fill="#2D2D30"/>
<circle cx="8" cy="8" r="8" transform="matrix(-0.965926 0.258819 0.258819 0.965926 264.569 61.2336)" fill="#2D2D30"/>
<circle cx="8" cy="8" r="8" transform="matrix(-0.965926 0.258819 0.258819 0.965926 233.66 69.5159)" fill="#2D2D30"/>
<circle cx="8" cy="8" r="8" transform="matrix(-0.965926 0.258819 0.258819 0.965926 202.751 77.7981)" fill="#2D2D30"/>
<circle cx="8" cy="8" r="8" transform="matrix(-0.965926 0.258819 0.258819 0.965926 171.841 86.0803)" fill="#2D2D30"/>
<circle cx="8" cy="8" r="8" transform="matrix(-0.965926 0.258819 0.258819 0.965926 140.932 94.3625)" fill="#2D2D30"/>
<circle cx="8" cy="8" r="8" transform="matrix(-0.965926 0.258819 0.258819 0.965926 110.021 102.645)" fill="#2D2D30"/>
<circle cx="8" cy="8" r="8" transform="matrix(-0.965926 0.258819 0.258819 0.965926 489.22 34.1677)" fill="#2D2D30"/>
<circle cx="8" cy="8" r="8" transform="matrix(-0.965926 0.258819 0.258819 0.965926 458.31 42.45)" fill="#2D2D30"/>
<circle cx="8" cy="8" r="8" transform="matrix(-0.965926 0.258819 0.258819 0.965926 427.4 50.7322)" fill="#2D2D30"/>
<circle cx="8" cy="8" r="8" transform="matrix(-0.965926 0.258819 0.258819 0.965926 396.49 59.0144)" fill="#2D2D30"/>
<circle cx="8" cy="8" r="8" transform="matrix(-0.965926 0.258819 0.258819 0.965926 365.581 67.2966)" fill="#2D2D30"/>
<circle cx="8" cy="8" r="8" transform="matrix(-0.965926 0.258819 0.258819 0.965926 334.671 75.5789)" fill="#2D2D30"/>
<circle cx="8" cy="8" r="8" transform="matrix(-0.965926 0.258819 0.258819 0.965926 303.762 83.8611)" fill="#2D2D30"/>
<circle cx="8" cy="8" r="8" transform="matrix(-0.965926 0.258819 0.258819 0.965926 272.852 92.1433)" fill="#2D2D30"/>
<circle cx="8" cy="8" r="8" transform="matrix(-0.965926 0.258819 0.258819 0.965926 241.942 100.426)" fill="#2D2D30"/>
<circle cx="8" cy="8" r="8" transform="matrix(-0.965926 0.258819 0.258819 0.965926 211.033 108.708)" fill="#2D2D30"/>
<circle cx="8" cy="8" r="8" transform="matrix(-0.965926 0.258819 0.258819 0.965926 180.123 116.99)" fill="#2D2D30"/>
<circle cx="8" cy="8" r="8" transform="matrix(-0.965926 0.258819 0.258819 0.965926 149.214 125.272)" fill="#2D2D30"/>
<circle cx="8" cy="8" r="8" transform="matrix(-0.965926 0.258819 0.258819 0.965926 118.304 133.554)" fill="#2D2D30"/>
<circle cx="8" cy="8" r="8" transform="matrix(-0.965926 0.258819 0.258819 0.965926 466.592 73.3596)" fill="#2D2D30"/>
<circle cx="8" cy="8" r="8" transform="matrix(-0.965926 0.258819 0.258819 0.965926 435.683 81.6418)" fill="#2D2D30"/>
<circle cx="8" cy="8" r="8" transform="matrix(-0.965926 0.258819 0.258819 0.965926 404.772 89.9241)" fill="#2D2D30"/>
<circle cx="8" cy="8" r="8" transform="matrix(-0.965926 0.258819 0.258819 0.965926 373.863 98.2063)" fill="#2D2D30"/>
<circle cx="8" cy="8" r="8" transform="matrix(-0.965926 0.258819 0.258819 0.965926 342.953 106.489)" fill="#2D2D30"/>
<circle cx="8" cy="8" r="8" transform="matrix(-0.965926 0.258819 0.258819 0.965926 312.044 114.771)" fill="#2D2D30"/>
<circle cx="8" cy="8" r="8" transform="matrix(-0.965926 0.258819 0.258819 0.965926 281.134 123.053)" fill="#2D2D30"/>
<circle cx="8" cy="8" r="8" transform="matrix(-0.965926 0.258819 0.258819 0.965926 250.225 131.335)" fill="#2D2D30"/>
<circle cx="8" cy="8" r="8" transform="matrix(-0.965926 0.258819 0.258819 0.965926 219.315 139.617)" fill="#2D2D30"/>
<circle cx="8" cy="8" r="8" transform="matrix(-0.965926 0.258819 0.258819 0.965926 188.405 147.899)" fill="#2D2D30"/>
<circle cx="8" cy="8" r="8" transform="matrix(-0.965926 0.258819 0.258819 0.965926 157.496 156.182)" fill="#2D2D30"/>
<circle cx="8" cy="8" r="8" transform="matrix(-0.965926 0.258819 0.258819 0.965926 126.586 164.464)" fill="#2D2D30"/>
<circle cx="8" cy="8" r="8" transform="matrix(-0.965926 0.258819 0.258819 0.965926 95.6768 172.746)" fill="#2D2D30"/>
<circle cx="8" cy="8" r="8" transform="matrix(-0.965926 0.258819 0.258819 0.965926 474.874 104.269)" fill="#2D2D30"/>
<circle cx="8" cy="8" r="8" transform="matrix(-0.965926 0.258819 0.258819 0.965926 443.965 112.552)" fill="#2D2D30"/>
<circle cx="8" cy="8" r="8" transform="matrix(-0.965926 0.258819 0.258819 0.965926 413.055 120.834)" fill="#2D2D30"/>
<circle cx="8" cy="8" r="8" transform="matrix(-0.965926 0.258819 0.258819 0.965926 382.146 129.116)" fill="#2D2D30"/>
<circle cx="8" cy="8" r="8" transform="matrix(-0.965926 0.258819 0.258819 0.965926 351.235 137.398)" fill="#2D2D30"/>
<circle cx="8" cy="8" r="8" transform="matrix(-0.965926 0.258819 0.258819 0.965926 320.326 145.68)" fill="#2D2D30"/>
<circle cx="8" cy="8" r="8" transform="matrix(-0.965926 0.258819 0.258819 0.965926 289.416 153.963)" fill="#2D2D30"/>
<circle cx="8" cy="8" r="8" transform="matrix(-0.965926 0.258819 0.258819 0.965926 258.507 162.245)" fill="#2D2D30"/>
<circle cx="8" cy="8" r="8" transform="matrix(-0.965926 0.258819 0.258819 0.965926 227.598 170.527)" fill="#2D2D30"/>
<circle cx="8" cy="8" r="8" transform="matrix(-0.965926 0.258819 0.258819 0.965926 196.688 178.809)" fill="#2D2D30"/>
<circle cx="8" cy="8" r="8" transform="matrix(-0.965926 0.258819 0.258819 0.965926 165.778 187.091)" fill="#2D2D30"/>
<circle cx="8" cy="8" r="8" transform="matrix(-0.965926 0.258819 0.258819 0.965926 134.868 195.374)" fill="#2D2D30"/>
<circle cx="8" cy="8" r="8" transform="matrix(-0.965926 0.258819 0.258819 0.965926 483.156 135.179)" fill="#2D2D30"/>
<circle cx="8" cy="8" r="8" transform="matrix(-0.965926 0.258819 0.258819 0.965926 452.247 143.461)" fill="#2D2D30"/>
<circle cx="8" cy="8" r="8" transform="matrix(-0.965926 0.258819 0.258819 0.965926 421.337 151.743)" fill="#2D2D30"/>
<circle cx="8" cy="8" r="8" transform="matrix(-0.965926 0.258819 0.258819 0.965926 390.428 160.025)" fill="#2D2D30"/>
<circle cx="8" cy="8" r="8" transform="matrix(-0.965926 0.258819 0.258819 0.965926 359.518 168.308)" fill="#2D2D30"/>
<circle cx="8" cy="8" r="8" transform="matrix(-0.965926 0.258819 0.258819 0.965926 328.608 176.59)" fill="#2D2D30"/>
<circle cx="8" cy="8" r="8" transform="matrix(-0.965926 0.258819 0.258819 0.965926 297.698 184.872)" fill="#2D2D30"/>
<circle cx="8" cy="8" r="8" transform="matrix(-0.965926 0.258819 0.258819 0.965926 266.789 193.154)" fill="#2D2D30"/>
<circle cx="8" cy="8" r="8" transform="matrix(-0.965926 0.258819 0.258819 0.965926 235.88 201.437)" fill="#2D2D30"/>
<circle cx="8" cy="8" r="8" transform="matrix(-0.965926 0.258819 0.258819 0.965926 204.97 209.719)" fill="#2D2D30"/>
<circle cx="8" cy="8" r="8" transform="matrix(-0.965926 0.258819 0.258819 0.965926 174.061 218.001)" fill="#2D2D30"/>
<circle cx="8" cy="8" r="8" transform="matrix(-0.965926 0.258819 0.258819 0.965926 143.15 226.283)" fill="#2D2D30"/>
<circle cx="8" cy="8" r="8" transform="matrix(-0.965926 0.258819 0.258819 0.965926 491.438 166.089)" fill="#2D2D30"/>
<circle cx="8" cy="8" r="8" transform="matrix(-0.965926 0.258819 0.258819 0.965926 460.529 174.371)" fill="#2D2D30"/>
<circle cx="8" cy="8" r="8" transform="matrix(-0.965926 0.258819 0.258819 0.965926 429.619 182.653)" fill="#2D2D30"/>
<circle cx="8" cy="8" r="8" transform="matrix(-0.965926 0.258819 0.258819 0.965926 398.71 190.935)" fill="#2D2D30"/>
<circle cx="8" cy="8" r="8" transform="matrix(-0.965926 0.258819 0.258819 0.965926 367.8 199.217)" fill="#2D2D30"/>
<circle cx="8" cy="8" r="8" transform="matrix(-0.965926 0.258819 0.258819 0.965926 336.891 207.5)" fill="#2D2D30"/>
<circle cx="8" cy="8" r="8" transform="matrix(-0.965926 0.258819 0.258819 0.965926 305.98 215.782)" fill="#2D2D30"/>
<circle cx="8" cy="8" r="8" transform="matrix(-0.965926 0.258819 0.258819 0.965926 275.071 224.064)" fill="#2D2D30"/>
<circle cx="8" cy="8" r="8" transform="matrix(-0.965926 0.258819 0.258819 0.965926 244.162 232.346)" fill="#2D2D30"/>
<circle cx="8" cy="8" r="8" transform="matrix(-0.965926 0.258819 0.258819 0.965926 213.252 240.628)" fill="#2D2D30"/>
<circle cx="8" cy="8" r="8" transform="matrix(-0.965926 0.258819 0.258819 0.965926 182.343 248.911)" fill="#2D2D30"/>
<circle cx="8" cy="8" r="8" transform="matrix(-0.965926 0.258819 0.258819 0.965926 468.812 205.28)" fill="#2D2D30"/>
<circle cx="8" cy="8" r="8" transform="matrix(-0.965926 0.258819 0.258819 0.965926 437.901 213.562)" fill="#2D2D30"/>
<circle cx="8" cy="8" r="8" transform="matrix(-0.965926 0.258819 0.258819 0.965926 406.992 221.845)" fill="#2D2D30"/>
<circle cx="8" cy="8" r="8" transform="matrix(-0.965926 0.258819 0.258819 0.965926 376.082 230.127)" fill="#2D2D30"/>
<circle cx="8" cy="8" r="8" transform="matrix(-0.965926 0.258819 0.258819 0.965926 345.173 238.409)" fill="#2D2D30"/>
<circle cx="8" cy="8" r="8" transform="matrix(-0.965926 0.258819 0.258819 0.965926 314.263 246.691)" fill="#2D2D30"/>
<circle cx="8" cy="8" r="8" transform="matrix(-0.965926 0.258819 0.258819 0.965926 283.354 254.974)" fill="#2D2D30"/>
<circle cx="8" cy="8" r="8" transform="matrix(-0.965926 0.258819 0.258819 0.965926 252.444 263.256)" fill="#2D2D30"/>
<circle cx="8" cy="8" r="8" transform="matrix(-0.965926 0.258819 0.258819 0.965926 221.534 271.538)" fill="#2D2D30"/>
<circle cx="8" cy="8" r="8" transform="matrix(-0.965926 0.258819 0.258819 0.965926 190.625 279.82)" fill="#2D2D30"/>
<circle cx="8" cy="8" r="8" transform="matrix(-0.965926 0.258819 0.258819 0.965926 159.715 288.102)" fill="#2D2D30"/>
<circle cx="8" cy="8" r="8" transform="matrix(-0.965926 0.258819 0.258819 0.965926 477.094 236.19)" fill="#2D2D30"/>
<circle cx="8" cy="8" r="8" transform="matrix(-0.965926 0.258819 0.258819 0.965926 446.184 244.472)" fill="#2D2D30"/>
<circle cx="8" cy="8" r="8" transform="matrix(-0.965926 0.258819 0.258819 0.965926 415.274 252.754)" fill="#2D2D30"/>
<circle cx="8" cy="8" r="8" transform="matrix(-0.965926 0.258819 0.258819 0.965926 384.364 261.037)" fill="#2D2D30"/>
<circle cx="8" cy="8" r="8" transform="matrix(-0.965926 0.258819 0.258819 0.965926 353.455 269.319)" fill="#2D2D30"/>
<circle cx="8" cy="8" r="8" transform="matrix(-0.965926 0.258819 0.258819 0.965926 322.545 277.601)" fill="#2D2D30"/>
<circle cx="8" cy="8" r="8" transform="matrix(-0.965926 0.258819 0.258819 0.965926 291.636 285.883)" fill="#2D2D30"/>
<circle cx="8" cy="8" r="8" transform="matrix(-0.965926 0.258819 0.258819 0.965926 260.727 294.165)" fill="#2D2D30"/>
<circle cx="8" cy="8" r="8" transform="matrix(-0.965926 0.258819 0.258819 0.965926 229.816 302.448)" fill="#2D2D30"/>
<circle cx="8" cy="8" r="8" transform="matrix(-0.965926 0.258819 0.258819 0.965926 198.907 310.73)" fill="#2D2D30"/>
<circle cx="8" cy="8" r="8" transform="matrix(-0.965926 0.258819 0.258819 0.965926 485.376 267.1)" fill="#2D2D30"/>
<circle cx="8" cy="8" r="8" transform="matrix(-0.965926 0.258819 0.258819 0.965926 454.466 275.382)" fill="#2D2D30"/>
<circle cx="8" cy="8" r="8" transform="matrix(-0.965926 0.258819 0.258819 0.965926 423.557 283.664)" fill="#2D2D30"/>
<circle cx="8" cy="8" r="8" transform="matrix(-0.965926 0.258819 0.258819 0.965926 392.646 291.946)" fill="#2D2D30"/>
<circle cx="8" cy="8" r="8" transform="matrix(-0.965926 0.258819 0.258819 0.965926 361.737 300.229)" fill="#2D2D30"/>
<circle cx="8" cy="8" r="8" transform="matrix(-0.965926 0.258819 0.258819 0.965926 330.827 308.511)" fill="#2D2D30"/>
<circle cx="8" cy="8" r="8" transform="matrix(-0.965926 0.258819 0.258819 0.965926 299.918 316.793)" fill="#2D2D30"/>
<circle cx="8" cy="8" r="8" transform="matrix(-0.965926 0.258819 0.258819 0.965926 269.009 325.075)" fill="#2D2D30"/>
<circle cx="8" cy="8" r="8" transform="matrix(-0.965926 0.258819 0.258819 0.965926 238.099 333.357)" fill="#2D2D30"/>
<circle cx="8" cy="8" r="8" transform="matrix(-0.965926 0.258819 0.258819 0.965926 493.658 298.009)" fill="#2D2D30"/>
<circle cx="8" cy="8" r="8" transform="matrix(-0.965926 0.258819 0.258819 0.965926 462.748 306.292)" fill="#2D2D30"/>
<circle cx="8" cy="8" r="8" transform="matrix(-0.965926 0.258819 0.258819 0.965926 431.839 314.574)" fill="#2D2D30"/>
<circle cx="8" cy="8" r="8" transform="matrix(-0.965926 0.258819 0.258819 0.965926 400.929 322.856)" fill="#2D2D30"/>
<circle cx="8" cy="8" r="8" transform="matrix(-0.965926 0.258819 0.258819 0.965926 370.02 331.138)" fill="#2D2D30"/>
<circle cx="8" cy="8" r="8" transform="matrix(-0.965926 0.258819 0.258819 0.965926 339.109 339.42)" fill="#2D2D30"/>
<circle cx="8" cy="8" r="8" transform="matrix(-0.965926 0.258819 0.258819 0.965926 308.2 347.703)" fill="#2D2D30"/>
<circle cx="8" cy="8" r="8" transform="matrix(-0.965926 0.258819 0.258819 0.965926 277.291 355.985)" fill="#2D2D30"/>
<circle cx="8" cy="8" r="8" transform="matrix(-0.965926 0.258819 0.258819 0.965926 471.03 337.201)" fill="#2D2D30"/>
<circle cx="8" cy="8" r="8" transform="matrix(-0.965926 0.258819 0.258819 0.965926 440.121 345.483)" fill="#2D2D30"/>
<circle cx="8" cy="8" r="8" transform="matrix(-0.965926 0.258819 0.258819 0.965926 409.211 353.766)" fill="#2D2D30"/>
<circle cx="8" cy="8" r="8" transform="matrix(-0.965926 0.258819 0.258819 0.965926 378.302 362.048)" fill="#2D2D30"/>
<circle cx="8" cy="8" r="8" transform="matrix(-0.965926 0.258819 0.258819 0.965926 347.392 370.33)" fill="#2D2D30"/>
<circle cx="8" cy="8" r="8" transform="matrix(-0.965926 0.258819 0.258819 0.965926 316.482 378.612)" fill="#2D2D30"/>
<circle cx="8" cy="8" r="8" transform="matrix(-0.965926 0.258819 0.258819 0.965926 285.573 386.894)" fill="#2D2D30"/>
<circle cx="8" cy="8" r="8" transform="matrix(-0.965926 0.258819 0.258819 0.965926 254.663 395.177)" fill="#2D2D30"/>
<circle cx="8" cy="8" r="8" transform="matrix(-0.965926 0.258819 0.258819 0.965926 479.312 368.111)" fill="#2D2D30"/>
<circle cx="8" cy="8" r="8" transform="matrix(-0.965926 0.258819 0.258819 0.965926 448.403 376.393)" fill="#2D2D30"/>
<circle cx="8" cy="8" r="8" transform="matrix(-0.965926 0.258819 0.258819 0.965926 417.493 384.675)" fill="#2D2D30"/>
<circle cx="8" cy="8" r="8" transform="matrix(-0.965926 0.258819 0.258819 0.965926 386.584 392.957)" fill="#2D2D30"/>
<circle cx="8" cy="8" r="8" transform="matrix(-0.965926 0.258819 0.258819 0.965926 355.674 401.24)" fill="#2D2D30"/>
<circle cx="8" cy="8" r="8" transform="matrix(-0.965926 0.258819 0.258819 0.965926 324.765 409.522)" fill="#2D2D30"/>
<circle cx="8" cy="8" r="8" transform="matrix(-0.965926 0.258819 0.258819 0.965926 293.855 417.804)" fill="#2D2D30"/>
<circle cx="8" cy="8" r="8" transform="matrix(-0.965926 0.258819 0.258819 0.965926 487.595 399.02)" fill="#2D2D30"/>
<circle cx="8" cy="8" r="8" transform="matrix(-0.965926 0.258819 0.258819 0.965926 456.686 407.302)" fill="#2D2D30"/>
<circle cx="8" cy="8" r="8" transform="matrix(-0.965926 0.258819 0.258819 0.965926 425.775 415.585)" fill="#2D2D30"/>
<circle cx="8" cy="8" r="8" transform="matrix(-0.965926 0.258819 0.258819 0.965926 394.866 423.867)" fill="#2D2D30"/>
<circle cx="8" cy="8" r="8" transform="matrix(-0.965926 0.258819 0.258819 0.965926 363.956 432.149)" fill="#2D2D30"/>
<circle cx="8" cy="8" r="8" transform="matrix(-0.965926 0.258819 0.258819 0.965926 333.047 440.431)" fill="#2D2D30"/>
<circle cx="8" cy="8" r="8" transform="matrix(-0.965926 0.258819 0.258819 0.965926 302.138 448.713)" fill="#2D2D30"/>
<circle cx="8" cy="8" r="8" transform="matrix(-0.965926 0.258819 0.258819 0.965926 464.968 438.212)" fill="#2D2D30"/>
<circle cx="8" cy="8" r="8" transform="matrix(-0.965926 0.258819 0.258819 0.965926 434.058 446.494)" fill="#2D2D30"/>
<circle cx="8" cy="8" r="8" transform="matrix(-0.965926 0.258819 0.258819 0.965926 403.148 454.777)" fill="#2D2D30"/>
<circle cx="8" cy="8" r="8" transform="matrix(-0.965926 0.258819 0.258819 0.965926 372.238 463.059)" fill="#2D2D30"/>
<circle cx="8" cy="8" r="8" transform="matrix(-0.965926 0.258819 0.258819 0.965926 341.329 471.341)" fill="#2D2D30"/>
<circle cx="8" cy="8" r="8" transform="matrix(-0.965926 0.258819 0.258819 0.965926 473.25 469.122)" fill="#2D2D30"/>
<circle cx="8" cy="8" r="8" transform="matrix(-0.965926 0.258819 0.258819 0.965926 442.34 477.404)" fill="#2D2D30"/>
<circle cx="8" cy="8" r="8" transform="matrix(-0.965926 0.258819 0.258819 0.965926 411.431 485.686)" fill="#2D2D30"/>
<circle cx="8" cy="8" r="8" transform="matrix(-0.965926 0.258819 0.258819 0.965926 380.521 493.969)" fill="#2D2D30"/>
<circle cx="8" cy="8" r="8" transform="matrix(-0.965926 0.258819 0.258819 0.965926 481.532 500.031)" fill="#2D2D30"/>
<circle cx="8" cy="8" r="8" transform="matrix(-0.965926 0.258819 0.258819 0.965926 450.622 508.314)" fill="#2D2D30"/>
<circle cx="8" cy="8" r="8" transform="matrix(-0.965926 0.258819 0.258819 0.965926 419.713 516.596)" fill="#2D2D30"/>
<circle cx="8" cy="8" r="8" transform="matrix(-0.965926 0.258819 0.258819 0.965926 489.814 530.941)" fill="#2D2D30"/>
<circle cx="8" cy="8" r="8" transform="matrix(-0.965926 0.258819 0.258819 0.965926 458.904 539.223)" fill="#2D2D30"/>
<circle cx="8" cy="8" r="8" transform="matrix(-0.965926 0.258819 0.258819 0.965926 427.995 547.506)" fill="#2D2D30"/>
<circle cx="8" cy="8" r="8" transform="matrix(-0.965926 0.258819 0.258819 0.965926 397.085 555.788)" fill="#2D2D30"/>
<circle cx="8" cy="8" r="8" transform="matrix(-0.965926 0.258819 0.258819 0.965926 467.187 570.133)" fill="#2D2D30"/>
<circle cx="8" cy="8" r="8" transform="matrix(-0.965926 0.258819 0.258819 0.965926 436.277 578.415)" fill="#2D2D30"/>
<circle cx="8" cy="8" r="8" transform="matrix(-0.965926 0.258819 0.258819 0.965926 405.367 586.697)" fill="#2D2D30"/>
<circle cx="8" cy="8" r="8" transform="matrix(-0.965926 0.258819 0.258819 0.965926 475.469 601.042)" fill="#2D2D30"/>
<circle cx="8" cy="8" r="8" transform="matrix(-0.965926 0.258819 0.258819 0.965926 444.56 609.325)" fill="#2D2D30"/>
<circle cx="8" cy="8" r="8" transform="matrix(-0.965926 0.258819 0.258819 0.965926 483.751 631.952)" fill="#2D2D30"/>
</g>
<defs>
<clipPath id="clip0_703_7936">
<rect width="480" height="652" fill="white" transform="matrix(-1 0 0 1 480 0)"/>
</clipPath>
</defs>
</svg>
