<svg width="200" height="190" viewBox="0 0 200 190" fill="none" xmlns="http://www.w3.org/2000/svg">
<g clip-path="url(#clip0_736_8912)">
<path d="M163.844 13.7143C165.2 13.7143 166.526 13.3121 167.653 12.5587C168.781 11.8052 169.66 10.7342 170.179 9.48126C170.698 8.22828 170.834 6.84954 170.569 5.51938C170.305 4.18923 169.651 2.9674 168.692 2.00841C167.733 1.04942 166.512 0.396346 165.182 0.131761C163.851 -0.132823 162.473 0.00297107 161.22 0.521972C159.967 1.04097 158.896 1.91987 158.142 3.04752C157.389 4.17517 156.987 5.50093 156.987 6.85715C156.987 8.67577 157.709 10.4199 158.995 11.7059C160.281 12.9918 162.025 13.7143 163.844 13.7143ZM174.129 30.8571C174.584 30.8571 175.02 30.6765 175.342 30.355C175.663 30.0336 175.844 29.5975 175.844 29.1429C175.844 25.9603 174.579 22.908 172.329 20.6576C170.079 18.4071 167.026 17.1429 163.844 17.1429C160.661 17.1429 157.609 18.4071 155.358 20.6576C153.108 22.908 151.844 25.9603 151.844 29.1429C151.844 29.5975 152.024 30.0336 152.346 30.355C152.667 30.6765 153.103 30.8571 153.558 30.8571H174.129Z" fill="#5252E4"/>
</g>
<g clip-path="url(#clip1_736_8912)">
<path d="M155.969 172.714C157.325 172.714 158.651 172.312 159.778 171.559C160.906 170.805 161.785 169.734 162.304 168.481C162.823 167.228 162.959 165.85 162.694 164.519C162.43 163.189 161.776 161.967 160.817 161.008C159.858 160.049 158.637 159.396 157.307 159.132C155.976 158.867 154.598 159.003 153.345 159.522C152.092 160.041 151.021 160.92 150.267 162.048C149.514 163.175 149.112 164.501 149.112 165.857C149.112 167.676 149.834 169.42 151.12 170.706C152.406 171.992 154.15 172.714 155.969 172.714ZM166.254 189.857C166.709 189.857 167.145 189.677 167.467 189.355C167.788 189.034 167.969 188.598 167.969 188.143C167.969 184.96 166.704 181.908 164.454 179.658C162.204 177.407 159.151 176.143 155.969 176.143C152.786 176.143 149.734 177.407 147.483 179.658C145.233 181.908 143.969 184.96 143.969 188.143C143.969 188.598 144.149 189.034 144.471 189.355C144.792 189.677 145.228 189.857 145.683 189.857H166.254Z" fill="#5252E4"/>
</g>
<g clip-path="url(#clip2_736_8912)">
<path d="M187.969 132.714C189.325 132.714 190.651 132.312 191.778 131.559C192.906 130.805 193.785 129.734 194.304 128.481C194.823 127.228 194.959 125.85 194.694 124.519C194.43 123.189 193.776 121.967 192.817 121.008C191.858 120.049 190.637 119.396 189.307 119.132C187.976 118.867 186.598 119.003 185.345 119.522C184.092 120.041 183.021 120.92 182.267 122.048C181.514 123.175 181.112 124.501 181.112 125.857C181.112 127.676 181.834 129.42 183.12 130.706C184.406 131.992 186.15 132.714 187.969 132.714ZM198.254 149.857C198.709 149.857 199.145 149.677 199.467 149.355C199.788 149.034 199.969 148.598 199.969 148.143C199.969 144.96 198.704 141.908 196.454 139.658C194.204 137.407 191.151 136.143 187.969 136.143C184.786 136.143 181.734 137.407 179.483 139.658C177.233 141.908 175.969 144.96 175.969 148.143C175.969 148.598 176.149 149.034 176.471 149.355C176.792 149.677 177.228 149.857 177.683 149.857H198.254Z" fill="#5252E4"/>
</g>
<path fill-rule="evenodd" clip-rule="evenodd" d="M46.047 75.0769C44.5998 80.135 43.8247 85.477 43.8247 91C43.8247 96.523 44.5998 101.865 46.047 106.923H71.3058C70.7386 101.813 70.4401 96.4762 70.4401 91C70.4401 85.5238 70.7386 80.1874 71.3058 75.0769H46.047ZM49.9535 65.0769H72.8096C74.1826 57.9294 76.1143 51.4201 78.504 45.8389C80.0579 42.2096 81.8429 38.8852 83.8568 36.0048C69.0483 40.7772 56.8505 51.3647 49.9535 65.0769ZM119.331 36.0048C121.345 38.8852 123.13 42.2096 124.684 45.8389C127.074 51.4201 129.005 57.9294 130.378 65.0769H153.234C146.337 51.3647 134.14 40.7772 119.331 36.0048ZM157.141 75.0769H131.882C132.449 80.1874 132.748 85.5238 132.748 91C132.748 96.4762 132.449 101.813 131.882 106.923H157.141C158.588 101.865 159.363 96.523 159.363 91C159.363 85.477 158.588 80.135 157.141 75.0769ZM153.234 116.923H130.378C129.005 124.071 127.074 130.58 124.684 136.161C123.13 139.79 121.345 143.115 119.331 145.995C134.14 141.223 146.337 130.635 153.234 116.923ZM83.8568 145.995C81.8429 143.115 80.0579 139.79 78.504 136.161C76.1143 130.58 74.1826 124.071 72.8096 116.923H49.9535C56.8505 130.635 69.0483 141.223 83.8568 145.995ZM83.0101 116.923C84.2225 122.672 85.818 127.837 87.6968 132.225C89.9047 137.382 92.4054 141.235 94.9276 143.727C97.4283 146.197 99.6754 147.084 101.594 147.084C103.512 147.084 105.76 146.197 108.26 143.727C110.782 141.235 113.283 137.382 115.491 132.225C117.37 127.837 118.965 122.672 120.178 116.923H83.0101ZM121.816 106.923C122.42 101.885 122.748 96.5453 122.748 91C122.748 85.4548 122.42 80.1147 121.816 75.0769H81.3719C80.7674 80.1147 80.4401 85.4548 80.4401 91C80.4401 96.5453 80.7674 101.885 81.3719 106.923H121.816ZM83.0101 65.0769H120.178C118.965 59.328 117.37 54.1631 115.491 49.7749C113.283 44.6181 110.782 40.7646 108.26 38.2731C105.76 35.8027 103.512 34.9157 101.594 34.9157C99.6754 34.9157 97.4283 35.8027 94.9276 38.2731C92.4054 40.7646 89.9047 44.6181 87.6968 49.7749C85.818 54.1631 84.2225 59.328 83.0101 65.0769ZM33.8247 91C33.8247 53.5721 64.166 23.2308 101.594 23.2308C139.022 23.2308 169.363 53.5721 169.363 91C169.363 128.428 139.022 158.769 101.594 158.769C64.166 158.769 33.8247 128.428 33.8247 91Z" fill="#1E1EDC"/>
<g clip-path="url(#clip3_736_8912)">
<path d="M12.0313 84.7143C13.3875 84.7143 14.7132 84.3121 15.8409 83.5587C16.9685 82.8052 17.8474 81.7342 18.3664 80.4813C18.8854 79.2283 19.0212 77.8495 18.7566 76.5194C18.4921 75.1892 17.839 73.9674 16.88 73.0084C15.921 72.0494 14.6992 71.3963 13.369 71.1318C12.0389 70.8672 10.6601 71.003 9.40713 71.522C8.15416 72.041 7.08322 72.9199 6.32974 74.0475C5.57627 75.1752 5.17411 76.5009 5.17411 77.8571C5.17411 79.6758 5.89655 81.4199 7.18252 82.7059C8.46848 83.9918 10.2126 84.7143 12.0313 84.7143ZM22.317 101.857C22.7716 101.857 23.2077 101.677 23.5291 101.355C23.8506 101.034 24.0313 100.598 24.0313 100.143C24.0313 96.9603 22.767 93.908 20.5165 91.6576C18.2661 89.4071 15.2138 88.1429 12.0313 88.1429C8.84865 88.1429 5.79641 89.4071 3.54597 91.6576C1.29553 93.908 0.03125 96.9603 0.03125 100.143C0.03125 100.598 0.211862 101.034 0.533353 101.355C0.854844 101.677 1.29088 101.857 1.74554 101.857H22.317Z" fill="#5252E4"/>
</g>
<defs>
<clipPath id="clip0_736_8912">
<rect width="24" height="30.8571" fill="white" transform="translate(151.844)"/>
</clipPath>
<clipPath id="clip1_736_8912">
<rect width="24" height="30.8571" fill="white" transform="translate(143.969 159)"/>
</clipPath>
<clipPath id="clip2_736_8912">
<rect width="24" height="30.8571" fill="white" transform="translate(175.969 119)"/>
</clipPath>
<clipPath id="clip3_736_8912">
<rect width="24" height="30.8571" fill="white" transform="translate(0.03125 71)"/>
</clipPath>
</defs>
</svg>
