<svg width="120" height="120" viewBox="0 0 120 120" fill="none" xmlns="http://www.w3.org/2000/svg">
<path d="M68.9764 46.5C73.4824 46.5 77.8984 44.244 80.4544 40.14C84.3964 33.822 82.4584 25.488 76.1464 21.54C69.8284 17.604 61.4944 19.53 57.5464 25.848C53.6044 32.172 55.5424 40.512 61.8604 44.46C64.0744 45.834 66.5404 46.5 68.9764 46.5ZM65.1844 30.624C66.4984 28.518 69.2824 27.864 71.3824 29.19C72.4024 29.82 73.1164 30.816 73.3864 31.992C73.6564 33.168 73.4584 34.368 72.8224 35.388C71.5144 37.494 68.7304 38.142 66.6244 36.822C64.5184 35.508 63.8764 32.724 65.1844 30.624ZM39.2104 64.566C40.4584 64.566 41.7184 64.422 42.9664 64.134C47.2564 63.138 50.9044 60.528 53.2384 56.79C55.5724 53.052 56.3104 48.63 55.3144 44.334C54.3184 40.038 51.7144 36.396 47.9704 34.062C44.2324 31.728 39.8164 30.996 35.5144 31.98C31.2244 32.976 27.5704 35.586 25.2424 39.324C22.9084 43.068 22.1704 47.49 23.1664 51.786C24.1624 56.076 26.7724 59.724 30.5104 62.058C33.1624 63.708 36.1624 64.566 39.2104 64.566ZM32.8744 44.088C33.9364 42.39 35.5984 41.208 37.5484 40.752C39.5164 40.29 41.5084 40.626 43.2064 41.694C44.9044 42.756 46.0924 44.412 46.5484 46.362C46.9984 48.312 46.6684 50.322 45.6064 52.02C44.5444 53.718 42.8884 54.9 40.9384 55.356C38.9884 55.818 36.9784 55.482 35.2744 54.414C33.5764 53.358 32.3944 51.702 31.9384 49.752C31.4824 47.802 31.8124 45.792 32.8744 44.088ZM49.9144 70.626C43.5904 66.69 35.2564 68.622 31.3144 74.934C27.3724 81.258 29.3104 89.598 35.6284 93.546C37.8424 94.92 40.3084 95.586 42.7444 95.586C47.2564 95.586 51.6664 93.33 54.2224 89.226C58.1644 82.914 56.2264 74.574 49.9144 70.626ZM46.5844 84.468C45.2824 86.574 42.4984 87.228 40.3864 85.902C38.2804 84.588 37.6384 81.804 38.9464 79.704C40.2544 77.604 43.0384 76.944 45.1504 78.27C47.2564 79.584 47.8984 82.362 46.5844 84.468ZM108.138 13.296C103.686 11.784 98.9704 12.744 95.4904 15.432C94.3864 14.328 93.2644 13.236 91.9684 12.24C90.6604 11.262 89.3524 10.41 88.0024 9.576C75.3964 1.692 60.3124 -0.527999 45.5284 3.354C30.8524 7.2 18.2284 16.584 9.97244 29.79C-7.09157 57.162 0.150435 92.622 26.1004 108.822C30.3544 111.486 34.9984 113.52 39.8764 114.864C42.2584 115.524 44.6824 115.848 47.0884 115.848C53.9284 115.848 60.6184 113.238 65.8444 108.522C66.6244 109.752 67.4344 110.922 68.2864 111.942C71.3164 115.578 74.1964 117.42 76.8784 117.42C77.3704 117.42 77.8564 117.354 78.3364 117.234C82.0924 116.244 82.5184 112.566 82.7464 110.592C82.9684 108.66 83.2204 106.47 84.8464 103.998C86.1244 102.048 87.4444 101.196 88.9624 100.218C90.9364 98.946 93.3844 97.362 94.8244 93.81C96.3784 89.97 96.1144 85.47 94.5604 81.576C94.6684 81.528 94.7764 81.51 94.8844 81.462C98.1244 79.872 100.548 77.118 101.718 73.71L116.538 30.45C118.95 23.406 115.182 15.714 108.144 13.302L108.138 13.296ZM42.2884 106.182C38.1784 105.054 34.4464 103.422 30.8824 101.184C9.13243 87.606 3.18043 57.714 17.6164 34.554C24.6424 23.31 35.3644 15.318 47.8144 12.06C60.1864 8.82 72.7564 10.656 83.2564 17.214C84.4024 17.922 85.5004 18.63 86.5444 19.416C88.0624 20.574 89.3284 21.87 90.4684 23.22L76.1764 64.95C75.1984 67.806 75.2764 70.752 76.1404 73.422C70.5244 75.426 65.3644 79.98 62.9044 85.266C60.7144 89.964 60.7264 94.956 61.9144 99.576C57.0184 105.594 49.5424 108.216 42.3004 106.176L42.2884 106.182ZM86.4784 90.426C86.1424 91.254 85.7284 91.584 84.0844 92.646C82.2124 93.852 79.6564 95.508 77.3284 99.042C75.8464 101.292 75.0244 103.44 74.5384 105.318C73.3504 103.74 72.1024 101.664 71.2084 99.216C70.2244 96.54 69.4084 92.604 71.0584 89.064C72.5524 85.86 76.0144 82.842 79.4764 81.726C80.0704 81.534 80.9644 81.312 81.8824 81.312C82.5484 81.312 83.2324 81.432 83.8264 81.762C86.1724 83.076 87.5884 87.696 86.4784 90.426ZM108.018 27.528L93.1984 70.788C92.8084 71.922 91.9984 72.846 90.9244 73.374C89.8444 73.896 88.6204 73.98 87.4864 73.584C85.1404 72.78 83.8864 70.218 84.6904 67.872L99.5104 24.612C100.146 22.746 101.898 21.57 103.77 21.57C104.25 21.57 104.742 21.648 105.222 21.816C107.574 22.62 108.822 25.188 108.018 27.528Z" fill="#2D2D30"/>
</svg>
